# xmcd CD database file
#
# Track frame offsets:
#	150
#	31460
#	59654
#	85733
#	120818
#	148599
#	161248
#	181978
#	217158
#
# Disc length: 3145 seconds
#
# Revision: 0
# Processed by: cddbd v1.5.1PL0 Copyright (c) Steve Scherf et al.
# Submitted via: CDex 1.51
#
DISCID=7f0c4709
DTITLE=Malachy Papers - Backbelly
DYEAR=2004
DGENRE=Jazz
TTITLE0=Templer
TTITLE1=Ratsody
TTITLE2=Double Circus Horn
TTITLE3=Bumpy Nola Bus Ride
TTITLE4=Von Flugal #1
TTITLE5=Jane and Brad
TTITLE6=Piccaloaphone 
TTITLE7=Poleshift
TTITLE8=Walt's Sweatshop
EXTD=YEAR: 2004
EXTT0=
EXTT1=
EXTT2=
EXTT3=
EXTT4=
EXTT5=
EXTT6=
EXTT7=
EXTT8=
PLAYORDER=
